# xmcd CD database file
#
# Track frame offsets:
#	150
#	7530
#	25877
#	53232
#	70557
#	97160
#	130170
#	163960
#	190597
#	202280
#	216507
#	236940
#
# Disc length: 3435 seconds
#
# Revision: 0
# Processed by: cddbd v1.5.2PL0 Copyright (c) Steve Scherf et al.
# Submitted via: CDex 1.51
#
DISCID=ac0d690c
DTITLE=Fuentes - Garam Masala
DYEAR=1998
DGENRE=Jazz
TTITLE0=Eroto Dum
TTITLE1=Sabar
TTITLE2=Anda e Rianda
TTITLE3=Feel on Steel
TTITLE4=Farid
TTITLE5=Afro Blue
TTITLE6=Soy Latino
TTITLE7=Wooden Voo doo
TTITLE8=Afro Suite-Sweet Africa 1
TTITLE9=Afro Suite-Sweet Africa 2
TTITLE10=Kirki
TTITLE11=Nicondjara
EXTD=YEAR: 1998
EXTT0=
EXTT1=
EXTT2=
EXTT3=
EXTT4=
EXTT5=
EXTT6=
EXTT7=
EXTT8=
EXTT9=
EXTT10=
EXTT11=
PLAYORDER=
